<svg id="Layer_1" data-name="Layer 1" xmlns="http://www.w3.org/2000/svg" viewBox="0 0 124.54 33.14"><defs><style>.cls-1{fill:#818181;}.cls-2{fill:none;}.cls-3{font-size:13px;fill:#666;font-family:SegoeUI-Semibold, Segoe UI;font-weight:600;}.cls-4{letter-spacing:-0.01em;}</style></defs><path class="cls-1" d="M8.6,19.8c-.1,0-.1,0-.1-.1" transform="translate(0 0.14)"/><path class="cls-1" d="M17.9,22.7" transform="translate(0 0.14)"/><path class="cls-1" d="M30.3,32c.2.1.3.1.3.3s-.1.2-.1.3l-.6.2v-.2l-.2-.2-.4.2.1.2h-1c.2-.2.4-.1.7-.1l-.3-.3a.35.35,0,0,0-.2.1.37.37,0,0,1-.3-.1l-.1.3c-.1-.1-.2-.2-.4-.1v.3H25.6c-.1-.1-.1-.2-.2-.2h-.3c0,.2,0,.2.2.2-.2.1-.2.1-.6.1H23.4l-.1-.4c-.1.1-.2.3-.1.4H21.5a.9.9,0,0,1-.5-.1c-.2-.1-.5-.1-.7-.2l-.1.1a.76.76,0,0,1,.4.2H13a19.92,19.92,0,0,1-4.2-.4,11.55,11.55,0,0,1-6.3-3.2A7.25,7.25,0,0,1,.7,26.9,14,14,0,0,1,0,23.1V10.7A2.28,2.28,0,0,1,.3,9.6a2.48,2.48,0,0,0,.1-.9H.1V8.6A7.83,7.83,0,0,1,1.9,4.3a.64.64,0,0,1,0,.6c-.1,0-.1.1,0,.1s.2,0,.2-.1a1.42,1.42,0,0,0,.2-.6A.37.37,0,0,0,2.2,4,11.54,11.54,0,0,1,6.6,1v.3c0,.1.1.1.2.2A.35.35,0,0,0,7,1.4V1.1c0-.1.1-.2.3-.2l.1.4h.1A.37.37,0,0,1,7.6,1,.68.68,0,0,1,8.2.6c.2,0,.3-.1.5-.1,0,.1.1.2.1.3s.1.3-.2.4-.1.2-.1.3c.1-.1.2-.2.3-.2A1.38,1.38,0,0,0,9.1.9,2.19,2.19,0,0,1,9.4.4,8.33,8.33,0,0,1,11.6.1h0c0,.1-.1.2.1.2s.1-.1.1-.2V0h4c.2.2,0,.4.3.5V0h2.2c.2,0,.4,0,.4.2A5.16,5.16,0,0,1,19.8,0h47c0,.1.1.1.2.2h.2c.1.1,0,.3.4.2-.1-.1-.2-.1-.2-.2s.1-.1.1-.3h1.4c.1,0,.1,0,.2.1a4.33,4.33,0,0,0,.5-.1h.6a.9.9,0,0,1,.5.1.6.6,0,0,0,.4.1V0l-.2-.1h.3l.1.2.2-.1V.2l-.3.1.4.1c0,.3-.4.5-.2.8.3,0,.2-.4.6-.4L71.9.6h.7V.4a.19.19,0,0,0-.3,0c-.1.1-.2.1-.4,0l.2-.5a.37.37,0,0,1,.5.2l.1-.1.1.1h.1V.2a.6.6,0,0,1,.1.4V1c.3.2.5,0,.7-.1L73.3.5c.2-.2.5-.1.7-.1s.4-.1.6-.1c.1.2.1.4.2.6s.1.1.2.1a.76.76,0,0,1,.1-.4l.3-.3.2.2c.1,0,.2-.1.1-.3h.4c-.1.1-.1.3-.2.4s0,.1-.1.2,0,.1-.1.1h-.1c-.2-.1-.2,0-.4,0l.1.1-.2.2L74.9,1v.2h-.1L74.6.8l-.3.2a1.27,1.27,0,0,1-.1.6c-.1-.1-.1-.1-.3,0h.3c-.1.1-.2.1-.1.2s.1.1.1.2h-.4V1.8h-.1c-.1.2-.1.2-.6.4L73,2c-.1.2-.3.3-.5.1h-.4c-.3-.1-.3-.1-.4.1-.2,0-.6.1-.7-.1l-.5.1c0-.2.2-.3.3-.4s.2.1.3,0a.9.9,0,0,1,.5-.1c0-.1,0-.2-.3-.2h-.5l.1.2-.2.1c-.1-.2-.2-.2-.4-.2s-.2.1-.3.1l.1.4H67.9c-.1,0-.2,0-.1-.1h.3c0-.1,0-.1-.1-.2s-.2.1-.1.1a.19.19,0,0,0-.3,0,1.7,1.7,0,0,1-1,0h-.1A.75.75,0,0,1,66,2H64.7l.3-.5v.4l.1-.2-.6-.2c0,.2-.1.3-.1.4s-.1.2-.4.2H21.8l-.1-.6c-.3.2-.1.4-.2.5H13.1c0-.2.1-.4.1-.6a.6.6,0,0,1,.1-.4c0-.2,0-.2-.3-.3s-.3.2-.2.4v1h-.4a16.2,16.2,0,0,0-2.2.1,1.88,1.88,0,0,0-.8.2H9.2L8.8,2c-.2,0-.1.2-.3.2,0,.1.1.2.1.3s-.1.2-.3.3a3.55,3.55,0,0,0-.9.4l-.3-.3c0,.5-.4.6-.7.7-.2-.2.2-.4,0-.6-.4,0-.2.2-.3.3a.45.45,0,0,0,0,.5l-.4.3L5.5,4l-.1.1c0,.2-.1.3-.3.5a6.3,6.3,0,0,0-2.3,4v15c.1,3,2,5.1,5.5,6.4a1.69,1.69,0,0,0,.5.2,16.48,16.48,0,0,0,3.2.4H23.3c.1.1.1.3.2.4a.52.52,0,0,0,.4.2c.2-.2-.1-.4-.1-.6h3.4l-.2.3.4-.1c.1.2-.1.5.4.4,0-.1.1-.1.1-.2.2-.1.3-.3.5-.4h.1c0,.2-.1.3.2.4l.2-.1v-.4a5.7,5.7,0,0,1,1.3.1h.2a.66.66,0,0,1,.6.1.19.19,0,0,0,.3,0,1.27,1.27,0,0,1,.6-.1l-.1.1c0,.1.1.2.1.3s.1.2.2.3l-.1.2c0-.1-.1-.1-.1-.2s-.1-.1-.2-.1a2.09,2.09,0,0,0-.6.4c-.1,0-.1.1,0,.2q.45.15,0,.3c0-.1-.1-.2-.1-.3s-.1-.2-.2-.2l.2-.1-.4-.3-.1.4-.5-.3c-.1.2-.1.4-.2.5s-.1.1-.2.2h.3c.1,0,.2,0,.2.1s-.1.3.2.4l-.3-.4c.1,0,.1.1.2.1s.1,0,.1-.1,0,0,0-.1ZM72,1.2l.2.3V1.3a.19.19,0,0,0,.3,0l-.2-.2c.1.1.2,0,.3,0-.2-.1-.2,0-.3.1ZM28.5,31.8v-.2l-.1-.1-.1.1a.22.22,0,0,0,.2.2h0a1.38,1.38,0,0,0,.3.4c.1-.1.2-.2,0-.3A1,1,0,0,0,28.5,31.8Zm-2.2.4.1-.1c0-.1-.1-.2-.3-.2l.2.3c-.3-.1-.2-.3-.3-.4-.2.1-.3.3-.2.3a3.33,3.33,0,0,0,.6.3ZM69.8,1l-.2.1.3.2L69.8,1c.1-.1.3,0,.3-.2s-.2-.2-.3-.2a.19.19,0,0,0-.3.1c.1.1.1.2.2.3ZM15.3,1h.2c-.1-.2-.1-.4-.2-.6a.35.35,0,0,0-.1-.2.19.19,0,0,0-.3,0h0V.9c.1.2,0,.4.2.5C15.4,1.3,15.2,1.2,15.3,1ZM29.1,30.9c.2.2,0,.5.3.8-.2.2-.2.2,0,.4,0-.2.3-.2.4-.2a.35.35,0,0,0-.1-.2C29.7,31.2,29.3,31.1,29.1,30.9ZM2,11.5c.3-.4.4-.7.2-.9a.35.35,0,0,0-.2.1A1.1,1.1,0,0,0,2,11.5ZM68.4.1c-.3.2-.3.3-.1.4s.2,0,.3-.1S68.7.2,68.4.1ZM21,32.2h.1l.4-.2c0-.2-.2-.2-.4-.2ZM68.7,2.1c.2-.2-.1-.3-.2-.4l-.3.1h.3C68.5,2,68.5,2.1,68.7,2.1ZM68.5.7c.1.1.2.1.3.2a.37.37,0,0,0,.3-.1V.7c-.1,0-.1-.1-.2-.1S68.6.7,68.5.7ZM1.8,12h0c-.2.1-.2.2-.3.4l.1.1a.35.35,0,0,0,.2-.1A.3.3,0,0,0,1.8,12ZM21.3,31c.1.2.1.4.4.3,0-.2,0-.2-.4-.3Zm-4,.9c0-.2-.1-.3-.4-.3,0,.2.2.3.4.3ZM16.6,1.4V1.2l-.1-.1c-.1,0-.1.1-.1.2S16.4,1.5,16.6,1.4Zm7.6,29.9c0,.1.1.2.3.2s.1-.1.1-.2c-.2-.1-.3-.1-.4,0ZM73.3,2V1.7l-.5.2Zm.6-1c.2-.2.1-.3-.2-.4Zm-4.7.3h0c0-.1,0-.2-.1-.2h-.2v.1c.1,0,.2.1.3.1ZM7.1,2.1c.3-.1.3-.2.1-.4-.1.1-.2.2-.1.4Zm10.3-.3-.2-.1-.1.1.1.1Zm-3,29.8h0l-.3-.3c.1.1.1.3.3.3Zm9,.1h0l.2.2c.1.1.2.1.2-.1Zm3.7-.4h.1c.1-.1.1-.2-.1-.3ZM1.3,9.1H1.2a.35.35,0,0,1-.1.2l.1.1a.1.1,0,0,0,.1-.1ZM69.9,1.8c-.2,0-.3-.1-.4,0A.21.21,0,0,0,69.9,1.8ZM20.7,1.1,20.6,1a.1.1,0,0,0-.1.1l.1.1A.1.1,0,0,1,20.7,1.1ZM26.2,31h-.4l.2.3ZM70.6.3l-.3.1C70.5.5,70.5.5,70.6.3ZM11.7,1h0c-.1.1-.2.2,0,.3ZM31.4,31h.3v-.1h-.2A.1.1,0,0,0,31.4,31ZM7.6,1.7h0c.2-.1.2-.1,0-.2ZM24.8,32.6h.1l-.1-.3C24.6,32.5,24.7,32.6,24.8,32.6ZM69,1.7h0c.1.1.2.2.4.1Zm3.6,0h0l-.2-.2c-.1.2.1.2.2.2ZM25.5,31.6c0-.2,0-.2-.3-.2ZM70.6,1.4c-.2,0-.3,0-.3.1s.3,0,.3-.1ZM69,1.4h-.3l.1.1Zm4.2-.2.2.2.1-.1c0-.1-.1-.1-.3-.1ZM19.3,30.8c-.1,0-.1-.1-.2-.1l-.1.1.1.1C19.2,30.9,19.2,30.8,19.3,30.8Zm7.4-.2c-.2,0-.2.1-.1.2S26.7,30.7,26.7,30.6ZM9.9,2.2l.2-.1C9.9,2,9.9,2,9.9,2.2ZM29.5,31c.2.1.2.1.3-.1Zm44-29.3a.19.19,0,0,0,.3,0Zm-4-.3c0,.2,0,.2.2.2ZM20,31.7c-.1.1,0,.2.2.2ZM30.9,31h0a.14.14,0,0,0,0-.2l-.1.1A.1.1,0,0,0,30.9,31Zm-1.8.7c.1,0,.1-.1,0-.2H29c-.1.1-.1.1.1.2Zm-9.6,0h0l-.2-.2h-.1ZM67.3,1.2h0c0-.1-.1-.2-.2-.1Zm-38.8,30c-.1,0-.1-.1-.1,0l-.1.1.1.1C28.4,31.3,28.5,31.3,28.5,31.2ZM68.2,1.7h0a.1.1,0,0,0,.1-.1l-.1-.1h0Zm2.4-.6h0L70.4,1h0ZM72.7.4V.5l.1.1a.1.1,0,0,0,.1-.1C72.9.4,72.7.5,72.7.4ZM21.1,32.5c.1,0,.2,0,.2-.2ZM6.8,2.4c-.1,0-.1,0-.2-.1H6.5a.1.1,0,0,0,.1.1ZM6.4,30.7h0c.1-.1,0-.1,0-.1H6.3A.1.1,0,0,0,6.4,30.7Zm19.9,1.8-.1.1.1.1c.1-.1.1-.1,0-.2Zm-8-1.4h0l-.1-.2h-.1ZM66.5,1.8h0c0,.1,0,.1.1.1h0C66.6,1.8,66.6,1.8,66.5,1.8ZM31.1,30.9h0c-.1.1,0,.1,0,.1s.1,0,0-.1C31.2,31,31.2,30.9,31.1,30.9Zm-11.5.3h0l-.1-.2h0Zm11-.1h.1l-.1-.1h-.1Zm-4.2.2h.1v-.2h-.1Zm-.9.8h0c.1-.1.1-.2,0-.2h-.1a.31.31,0,0,1,.1.2Zm-5.6-.8h0v.2H20Zm53.8-30c.1,0,.1.1.1,0a.1.1,0,0,0,.1-.1h-.1A.1.1,0,0,1,73.7,1.3ZM3.3,4.5H3.2s0,.1.1,0ZM68.4,1.1Zm-.4.1h0c.1-.1,0-.1,0-.1s-.1,0,0,.1ZM23,1.6ZM65.3.9h.2V.8C65.4.9,65.4.9,65.3.9ZM27.4,32.2h0l.1-.1h-.1C27.3,32.1,27.3,32.1,27.4,32.2ZM71,.8h-.1c-.1.1,0,.1.1,0C70.9.9,71,.9,71,.8ZM24.8,32.2h0c-.1-.1-.1-.1-.2,0v.1A.31.31,0,0,1,24.8,32.2Zm-2.1-1h0v.1h.1ZM70.1.7h0c.1-.1,0-.1,0-.1V.7Zm-3.4,1,.1-.1h-.2A.1.1,0,0,1,66.7,1.7ZM8.3,2.7h0V2.6c-.1,0-.1,0,0,.1ZM69.8.3h0V.2c-.1,0-.1,0,0,.1Z" transform="translate(0 0.14)"/><path class="cls-1" d="M124.2,14.6a.4.4,0,0,1,.2.4v.4l-.4-.1v.1l.2.2c.2.1.2.2.2.4v4.5h-.3l.1.2.2-.1v1.6l-.4.1c.1.1.2.1.3.2s.2.1.1.3v.9l-.4.1.4.2a3.53,3.53,0,0,1-.3,1.4c-.1.2-.1.4-.2.6a5.57,5.57,0,0,1-.9,1.9,9.58,9.58,0,0,1-2.7,2.6c-.4.2-.8.5-1.2.7L119,31c-.1.4-.4.5-.7.6a.1.1,0,0,1-.1-.1c0-.1.2-.2.1-.4-.1.2-.2.3-.1.4a4,4,0,0,1-1.8.7c-.9.2-1.9.3-2.8.5a6.6,6.6,0,0,1-1.4.1H101v-.1c.1,0,.2-.1.4-.2a.21.21,0,0,0-.3-.3c-.1.1-.2.2-.1.3s.1.1.2.2a2.2,2.2,0,0,1-.8.1c-.1-.1.2-.3-.1-.4-.1,0-.1-.1-.3-.1.2.2.1.3,0,.5H48a1.27,1.27,0,0,1-.6-.1c-.1,0-.2-.1-.3,0a1.06,1.06,0,0,1-.8.1H41.1v-.2a.45.45,0,0,0-.5,0l.3-.6.2.1c0-.2-.2-.4,0-.6-.3,0-.4,0-.5.2a6.89,6.89,0,0,1-.3.8.1.1,0,0,1-.1.1,1,1,0,0,0-.9,0,.27.27,0,0,1,.3-.3H40c.3,0,.3,0,.3-.3H40v-.1h0c.1-.1.2-.2.1-.3s-.1.1-.2.1a.35.35,0,0,0-.1.2h0a.52.52,0,0,1-.4.2c-.1,0-.1.1-.2.1s-.2.3-.3.4h-.4l-.1-.2-.2.2-.2-.1c-.2.1-.4.2-.6,0a1.27,1.27,0,0,1-.6.1c-.1-.2.1-.3.2-.5-.2,0-.2.1-.3.2h0l.1-.3h-.4c-.2-.1-.1-.3,0-.5s.2-.3.1-.4,0-.3.1-.4.2.1.3.1.1-.1.2-.2a.64.64,0,0,1,.6,0l-.3.1.2.3c-.2,0-.2,0-.2-.1s-.2-.1-.3-.1h0c-.1,0-.1.1-.1.2s-.1.3-.2.5l.2-.3a.55.55,0,0,0-.3.5l.3-.1.2.1.2-.3c.1.1.2.2.1.3a.37.37,0,0,0-.1.3H38l.3-.3v-.2l.1-.1a.62.62,0,0,1-.5.8l.1.3h.4v-.4l.3.1c.1-.1.2-.1.3-.2,0,.1.1.2.3.2l.1-.1-.5-.1c0-.1,0-.1.1-.1a.76.76,0,0,0,.5-.2c-.2,0-.3-.3-.6-.1l.5-1,.7.1v-.1a4.05,4.05,0,0,1,1.1,0v.5c.2-.1.3-.2.5-.3,0,.1,0,.1.2.1l-.2-.1c.1-.2.3-.1.5-.1v.4c.4-.1.3-.4.4-.5h1.1a2,2,0,0,1,.7.1h.1a3.4,3.4,0,0,1,1-.1H86.8a1,1,0,0,1,.7.2.76.76,0,0,1,.4-.2h5.8c.1.1.2.2.3.2s.2-.1.3-.2h2.4c.4,0,.8.1,1.2.1h.3a1.7,1.7,0,0,1,.7-.1h4.3a.73.73,0,0,1,.6.2c.1-.2.3-.2.5-.2h3.4a.6.6,0,0,1,.4.1c0,.1.2.1.3,0a.37.37,0,0,1,.3-.1h2a23,23,0,0,0,3.7-.2,10.45,10.45,0,0,0,5.3-2.5,5.58,5.58,0,0,0,1.4-2,4.51,4.51,0,0,0,.5-2.5v-.8c0-.1.1-.2.1-.3-.2,0-.1-.1-.1-.2V20.6c0-.3.1-.5.1-.8a1.27,1.27,0,0,0-.1-.6c0-.1,0-.3.2-.3h0c-.2-.1-.2-.1-.2-.3V17c0-.2,0-.4.2-.5s.1-.1-.1-.2V16h.2a.45.45,0,0,0,0-.5l-.2.4V13.2c0-.1.1-.2.1-.3s.2-.1.2-.1h.1v-.3c0-.1,0-.2.1-.2s.1-.1.1-.2.1-.2.1-.3a1.61,1.61,0,0,0,.5-1.1,1.42,1.42,0,0,1,.2-.6,1,1,0,0,1,.4-.5V10h.1c.1-.2.3-.5.4-.7s.2-.2.4,0l-.2.1h.3a5.7,5.7,0,0,1-.1,1.3v.8c0,.4-.1.8-.1,1.1v.1a.4.4,0,0,1,.2.4,1,1,0,0,1-.2.9c-.1.1-.1.2-.1.4s0,.2,0,.2ZM42,31.4l-.1.2.3-.1-.2-.1v-.2l-.3.2H42Zm-3.1,1-.2-.1c0,.1.1.1.2.1v.2c.2-.1.3-.2.2-.3,0,.1-.1.1-.2.1Zm.7-1.5c.2.3-.3.3-.2.4h.5v.3c.2-.2.3-.4.5-.5s.2.1.3.1.2-.1.2-.3c-.2-.1-.3.1-.5,0s-.2.2-.4.1l.1-.2Zm59.2,1.4c-.1-.1-.3-.2-.4-.3s-.4-.1-.4,0a.35.35,0,0,0,.4.4.19.19,0,0,1,.3,0l.1-.1Zm24.5-22.2c-.1.1-.1.1-.1.2a.76.76,0,0,0,.1.4c0,.1-.2.2-.2.3s-.1.3-.3.4c.4,0,.4-.3.6-.4,0-.1-.1-.2-.1-.3A.64.64,0,0,0,123.3,10.1Zm.4,6.1c.3.1.1.3.2.4s.2,0,.2-.1,0-.3.1-.4v-.2c-.2.1-.5.2-.5.3Zm.6,5.4c-.2.2-.6.1-.6.3l.5.1Zm-.4-11.9h0a.31.31,0,0,0-.1.2l.3.3h.2v-.1l-.4-.4ZM95.8,32a.22.22,0,0,0,.2-.2h0c0-.1,0-.2-.2-.2s-.2.1-.3.2C95.6,31.9,95.7,32,95.8,32Zm-20.6-.6a.64.64,0,0,0,0-.6C75,31,75,31.1,75.2,31.4Zm26.6-.4a.37.37,0,0,0-.3-.1c-.1,0-.3.1-.3.2s.1.1.2.1A.52.52,0,0,1,101.8,31Zm-3.2-.1a.35.35,0,0,1,.2.1.35.35,0,0,0,.2-.1c0-.1-.1-.1-.2-.1S98.6,30.7,98.6,30.9Zm23.6-12a.73.73,0,0,0,.2-.6A.85.85,0,0,0,122.2,18.9Zm.7-6.9c.4-.1.5-.2.3-.4Zm.9,0h0a.37.37,0,0,0,.4.4v-.1A1.38,1.38,0,0,1,123.8,12ZM100.6,30.6c-.1.1-.1.1-.1.2l.1.1c.1,0,.2,0,.2-.1S100.7,30.7,100.6,30.6Zm23.1-16.8.1.5C124,14,124,14,123.7,13.8Zm-.9-.3h0l.5.3c-.1-.2-.3-.2-.5-.3Zm1.1,4.9.3-.1-.2-.2h-.1Zm-1.3.8a1.27,1.27,0,0,0,.6-.1A.66.66,0,0,0,122.6,19.2ZM100,31.8c.1.2.1.2.3.1Zm22.5-4.5c.2-.1.2-.1.2-.2V27h-.1ZM94.6,31.7c-.1.1-.1.1-.1.2a.35.35,0,0,0,.2.1l.1-.1C94.7,31.8,94.6,31.8,94.6,31.7Zm27.8-19.3c.2-.1.1-.2,0-.4C122.2,12.2,122.5,12.3,122.4,12.4Zm.7,9.2h.1l.2-.4h-.1Zm-.9-2.5c-.2,0-.2.1-.2.4C122.2,19.5,122.1,19.3,122.2,19.1Zm0,5.7h0l-.2.4h.1ZM98,31.3a.1.1,0,0,1-.1-.1.1.1,0,0,0-.1.1l.1.1Zm24.2-10c-.2,0-.2.1-.2.2h.1c.1,0,.1-.1.1-.2Zm-17.4,9.8.1-.1-.1-.1-.1.1.1.1Zm17.6-16.8c.1-.2.1-.2,0-.3Zm1.7,10.2h-.3c.2.1.2.1.3,0Zm-10.9,8c-.1,0-.1-.1-.2-.1l-.1.1.1.1Zm-69.1-.7h0l.3-.2h-.1Zm77.8-18.2h.1v-.3h-.1ZM42.3,31.8V32h.1l.2-.2Zm50-.9-.2-.1-.1.1.1.1a.35.35,0,0,1,.2-.1Zm-50.5,1c-.1.1-.2.1-.2.2.2,0,.2-.1.2-.2Zm81-17.2c.1-.2.1-.2,0-.3Zm.8,9.2h0l.2.1v-.1Zm-1.9-9.8h.1v-.3h-.1ZM102,32.5l-.1-.1-.1.1a.1.1,0,0,0,.1.1Zm.4-1.7-.3.1C102.3,31,102.4,30.9,102.4,30.8Zm-8.6,1.6h-.2a.1.1,0,0,0-.1.1l.1.1C93.8,32.5,93.8,32.5,93.8,32.4Zm26.5-4.9h0l-.1.2h.1Zm3.6-7a.1.1,0,0,1-.1-.1h-.1l.1.1C123.7,20.6,123.8,20.5,123.9,20.5Zm-77,11c.2-.1.2-.1.2-.2Zm-2.5.7h0c-.2,0-.2,0-.2.1Zm79.1-21h-.1l.1.1h.1ZM85.2,31.1h0c-.1-.1-.1,0-.2,0ZM43.9,32.5c.1.1.2.2.3,0Zm57.8-1.1h0l.1-.2h-.1Zm-8.4.4h0c-.1.1-.1.2,0,.2a.1.1,0,0,0,.1-.1Zm-56.2.1h0l.2.2a.2.2,0,0,0-.2-.2Zm64.2-.2.1-.1-.1-.1v.2ZM120.5,28c-.2.1-.2.1-.1.3Zm2.8-12.8c-.2,0-.3.1-.2.2Zm.5,8.4h.2v-.1Zm-.1-.4-.1-.1h-.1a.1.1,0,0,1,.1.1ZM102.6,31h0v0Zm-6,.2h0a.14.14,0,0,0-.2,0,.1.1,0,1,0,.2,0Zm26.3-17.1c0-.2,0-.2-.2-.1Zm.8-1.4ZM44.4,31.9h-.3a.1.1,0,0,0,.1.1Zm61,.2Zm-12.9.3h-.1c0,.1,0,.1.1,0Zm31.4-8.1Z" transform="translate(0 0.14)"/><path class="cls-1" d="M87.2,2.1c.2-.3.6-.4.7-.8,0-.1.2-.2.3-.2L88,.7l.2-.1c-.2-.2-.2-.3.1-.4L88.2.1c.1,0,.1-.1.2-.1H99.2l.3.4c.2-.1.1-.3.2-.4h12.8a12.41,12.41,0,0,1,2.7.3c.4.1.7.1,1,.2l-.3.6a.1.1,0,0,0,.1.1,1,1,0,0,0,.5-.6c.2,0,.2.1.2.2s0,.2.1.2h.2l-.1.4c.3-.1.3-.4.6-.5a.6.6,0,0,1-.1.4c-.1.2-.1.3-.3.4s0,.3-.2.4c0,.4,0,.4-.4.8-.6-.2-1.3-.3-1.9-.5a8.2,8.2,0,0,0-2.2-.2H92c-.1-.3.2-.6-.2-.9-.2.1-.3.2-.2.4v.5H90.3c-.1,0-.1-.1-.2-.1a.44.44,0,0,1-.5.1H88.5a.9.9,0,0,1-.5-.1c-.1.1-.3.1-.6.1-.1,0-.1-.1-.2-.1Zm6.7-.2H94V1.6l.3-.1a1.45,1.45,0,0,1-.2-.7l.4-.1a.73.73,0,0,0-.6-.2c-.2,0-.2.1-.2.3v.4c0,.3,0,.6.2.7ZM90.5.4c0,.1-.1.3-.1.4a.1.1,0,0,0,.1.1h.1C90.6.7,90.7.5,90.5.4Zm4.4.1h-.1a.45.45,0,0,0,0,.5H95ZM95.3,2h0c.1-.1.1-.1.1-.2s0-.1-.1-.2h-.1v.2C95.2,1.9,95.2,2,95.3,2Zm20.9-.6c-.2.2-.2.2-.2.4.2-.1.3-.2.2-.4Zm-16.9.3a.1.1,0,0,0,.1-.1l-.1-.1-.1.1ZM89.1.3c.1.1.3.2.4.1C89.4.3,89.3.2,89.1.3Zm1.4,1.2q-.3.15,0,.3ZM102.1.2a.19.19,0,0,0-.3,0V.3A.37.37,0,0,0,102.1.2ZM89.7,1.6c.1-.1.1-.1,0-.2h-.1C89.5,1.5,89.5,1.6,89.7,1.6Zm8.1-1c0-.1-.1-.1-.2-.1h0V.6ZM91.4,1h-.2a.1.1,0,0,0-.1.1l.1.1C91.3,1.1,91.3,1,91.4,1Zm-2.7.5h0l-.1-.1h0A.1.1,0,0,0,88.7,1.5ZM91.4.2h0L91.2.1V.2Z" transform="translate(0 0.14)"/><path class="cls-1" d="M122.3,7.8a.48.48,0,0,1-.2.6c-.1,0-.1.2-.1.3a1.7,1.7,0,0,1,.7-.1v.1a1.06,1.06,0,0,0-.6.7.66.66,0,0,1-.4.5c-.1-.1,0-.3.1-.4s.2-.3.2-.5l-.3.1V9a5.45,5.45,0,0,0-.5-2.2c-.2-.4-.5-.8-.7-1.2a.37.37,0,0,1,0-.6l.2-.2V4.6h.2l.4-1.6c.1,0,.2.1.3.2l-.2.1.2.2.3-.2a5.24,5.24,0,0,1,1,1.1c-.1,0-.3,0-.2.2l.2-.2c.2.1.1.3.2.4h.1c-.1.1.1.3-.1.4s0,.3-.1.4a.22.22,0,0,1-.2.2l-.1.1v.6a.35.35,0,0,0,.2.1c.2,0,.2,0,.4.2l-.5.3c-.1.5-.2.5-.5.7Zm-.8-4h0a.49.49,0,0,0-.1.7h.1c-.1.1-.2.1-.1.3s0,.2-.2.2a.1.1,0,0,0-.1.1v.3h0l.1-.2c.2.1,0,.3.3.4,0-.2.1-.3.1-.5s.1-.3.2-.5l-.2-.2-.2.1a1.7,1.7,0,0,0,.1-.7l.2.4a.37.37,0,0,0,.1-.3A.19.19,0,0,0,121.5,3.8Zm.5,3.1c.2-.7.3-.7,0-.9a2.54,2.54,0,0,0-.2.7C121.7,6.8,121.8,6.9,122,6.9Zm-.9-2.2-.3.5c.2,0,.3-.2.3-.5Zm1.2,2.8.3-.4c-.4,0-.4.1-.3.4Zm-1-.6.3.1c0-.2,0-.2-.2-.2Zm.9.1h0l.1-.3c-.2.1-.2.2-.1.3Zm-.1.7c-.2.1-.2.1-.1.2Zm.5-2.8c-.2.1-.2.1-.2.2Zm-.8-.8a.19.19,0,0,0,0-.3Zm-.1,4.2c.2,0,.2-.1.2-.1V8.1Zm0-.3h0c-.1,0-.1,0-.1.1h.1V8Z" transform="translate(0 0.14)"/><path class="cls-1" d="M119.5,3.9l-.1.7-.5-.4a.6.6,0,0,0,.1-.4c0-.1.1-.2-.2-.2.1-.2.2-.3.2-.5a.31.31,0,0,0-.1-.2h-.1a.35.35,0,0,0-.1.2.6.6,0,0,1-.1.4l.1.1-.1.5c-.2-.1-.4-.3-.6-.4a2.18,2.18,0,0,1-.5-.4,4.88,4.88,0,0,0-.7-.3c0-.1.1-.2.1-.3a.45.45,0,0,0,0-.5V2a8.79,8.79,0,0,0,.6-1l.2-.2.1.4h.1l.2-.3c.4.2.9.4,1.3.6,0,.1-.1.1-.2.2s-.2.1,0,.3v.1h.1c.2-.1,0-.4.2-.5.2.1.2.2.1.4s-.1.4-.2.6-.1.3-.2.5,0,.2.1.2h0c-.1.2-.3.3-.1.5Zm-1.8-2.1h0l.2-.2h-.1Z" transform="translate(0 0.14)"/><path class="cls-1" d="M83.1,2a.78.78,0,0,0,.2-.8h0c.2-.1.4,0,.6,0h0l-.1.2a.22.22,0,0,1,.2.2c0,.1-.1.1-.1.2s-.1.1-.1.2c.6,0,.6,0,.8-.2,0-.2-.1-.2-.4-.1.2-.2.6-.4.3-.7.3-.1.5,0,.5.1s.1.2.2.4c.1-.1.2-.1.2-.2a.37.37,0,0,0-.1-.3C85,1,85,.8,85.1.7h.2L85.2.5l.3-.3L84.9.1V0c.2-.1.3,0,.4.1l.2-.1h.1V.4c0,.2,0,.3-.2.4s-.1.2-.1.2c.2.2.1.4.1.7,0,.1,0,.1-.1.2s0,.2.3.2c.2-.3,0-.6.1-.9s.1-.6.2-.9H86a.6.6,0,0,0-.1.4c0,.1-.1.2-.1.3a.66.66,0,0,1,.1.6v.1c0,.1.1.1.1.2l.4-.1c0-.1-.1-.1-.1-.2a.84.84,0,0,0,.2-.7,1.7,1.7,0,0,0,.1-.7A.52.52,0,0,1,87,0h.8l.1.4c-.5.2-.4.6-.4,1-.1,0-.4,0-.3.2a.44.44,0,0,1-.3.1.32.32,0,0,1,.3.3h0c-.2.1-.3.2-.5.1s-.2-.1-.3-.2l-.1.2H84.7V2c.2,0,.2,0,.2-.2-.1.1-.3.1-.2.2h-.2a.37.37,0,0,1-.3.1h-1c-.2,0-.2,0-.3-.2l.2.1c.1.1.1.1.3,0Zm3.7-.6c-.1,0-.2-.1-.2,0s0,.1.1.1.1-.1.1-.1c.2,0,.2,0,.2-.2Zm.1-1h0V.2h-.1Z" transform="translate(0 0.14)"/><path class="cls-1" d="M119.4,3.6l.3-.3c-.2-.3.1-.4.2-.7.1-.1.2-.3.3-.4l.3.2-.5.5h.1l.4-.4c.1,0,.1.1.1.2a.35.35,0,0,1-.1.2c0,.1,0,.2.2.3l.2-.4c.1.1,0,.4-.3.7a2.54,2.54,0,0,1-.2,1.2V4.2h-.1l-.3.6c0-.1-.1-.1-.1-.2s.1-.4.3-.5a1,1,0,0,0,.1-.9.55.55,0,0,0-.3.5,1.27,1.27,0,0,1-.1.6.76.76,0,0,1-.2.4c-.2-.1-.1-.2-.1-.2a.61.61,0,0,0,.1-.6c0-.1,0-.1.1-.2l-.2.1c-.1,0-.1-.2-.2-.2Z" transform="translate(0 0.14)"/><path class="cls-1" d="M122.7,9.8c-.1-.3.2-.5.4-.7L123,9l-.5.2a4.42,4.42,0,0,0,.6-1.6c.1.1.1.1.1.4,0,.1-.2.2.1.4,0-.1.1-.2.1-.4V7.6l.3-.3a.76.76,0,0,1-.1.4c0,.1-.2.2,0,.3l-.1.2c-.1.1-.2.4,0,.5l.1.1c.1.1,0,.2-.2.2v.3a.37.37,0,0,0-.3.1l-.2.2a.22.22,0,0,0-.2.2Z" transform="translate(0 0.14)"/><path class="cls-1" d="M122.7,9.8c-.1.2-.1.3-.2.5a.44.44,0,0,0-.1.5.37.37,0,0,1-.1.3,5.74,5.74,0,0,1-.4.7c-.1.1-.1.2-.2.2-.1-.2-.2-.4,0-.6s.1-.2.1-.4l-.2.1c-.1-.1,0-.6.1-.8.2,0,.1.1.1.2v.3a.32.32,0,0,0,.3-.3.76.76,0,0,1,.2-.4,1.38,1.38,0,0,0,.3-.4.1.1,0,0,0,.1.1Z" transform="translate(0 0.14)"/><path class="cls-1" d="M34.4,31c-.1,0-.1.2-.3.1l-.1.1c-.1.2-.2.3-.2.5a.1.1,0,0,1-.1.1c-.1-.2-.3-.5.1-.6,0-.2-.1-.2-.3-.2s-.2-.1-.4,0l.2-.3h.3l.1.2a.55.55,0,0,0,.5-.3l.2.4Z" transform="translate(0 0.14)"/><path class="cls-1" d="M83.8,1.2a.37.37,0,0,0-.1-.3c-.3-.1-.3-.1-.2-.4.2,0,.3-.1.5-.1a.77.77,0,0,1,.1-.3l-.3.1V0l.5.1c-.2.2,0,.3-.2.4.1.2-.2.3-.1.5s0,.2-.2.2Z" transform="translate(0 0.14)"/><path class="cls-1" d="M31.7,32.4l-.2.1-.1-.1c-.1-.1-.2-.2,0-.3l.3.1.1-.5H32l-.2.5c.1.1.3.1.1.2C31.9,32.6,31.8,32.5,31.7,32.4Z" transform="translate(0 0.14)"/><path class="cls-1" d="M74.2,2c.3,0,.5-.1.8-.1.1,0,.2.1.3.1l.3-.2.1.2c-.4.2-.6,0-1-.1-.1.2-.3.2-.5.2.1,0,.1-.1,0-.1Z" transform="translate(0 0.14)"/><path class="cls-1" d="M124.2,8.3a.31.31,0,0,1,.1.2c-.2.2-.1.3,0,.5a.1.1,0,0,1-.1.1l-.2-.3c-.1,0,0,.3-.3.2C123.7,8.7,124,8.5,124.2,8.3Z" transform="translate(0 0.14)"/><path class="cls-1" d="M33.5,31.8c-.2.2-.3.4-.1.6l-.2.2h0v-.2c-.2.1-.1.3-.3.2.1-.1.1-.3.2-.4S33.2,31.8,33.5,31.8Z" transform="translate(0 0.14)"/><path class="cls-1" d="M76.2,1.8a.31.31,0,0,0,.1-.2c.2,0,.3-.2.4-.3s.1-.1.2-.1v.2c.1.2.1.2-.1.2A1.07,1.07,0,0,1,76.2,1.8Z" transform="translate(0 0.14)"/><path class="cls-1" d="M32.7,31.2c-.2.1-.4.1-.2.3-.1,0-.1.1-.2.1l-.1-.5C32.3,31.1,32.6,30.9,32.7,31.2Z" transform="translate(0 0.14)"/><path class="cls-1" d="M39.1,30.7c-.5,0-.3.3-.4.5-.2-.2.1-.4,0-.6l.4.1Z" transform="translate(0 0.14)"/><path class="cls-1" d="M119.4,3.6c.2.1.2.2.1.3h0l-.2.2C119,3.9,119.3,3.8,119.4,3.6Z" transform="translate(0 0.14)"/><path class="cls-1" d="M123,6.4c-.2-.2-.1-.4,0-.6A.63.63,0,0,1,123,6.4Z" transform="translate(0 0.14)"/><path class="cls-1" d="M83.1,1.4h-.3l-.1-.1-.2.1V1.2a.45.45,0,0,1,.6.2Z" transform="translate(0 0.14)"/><path class="cls-1" d="M76.5.7c.2-.1.2-.1.2-.4.1,0,.1,0,.1.1V.7Q76.8.85,76.5.7Z" transform="translate(0 0.14)"/><path class="cls-1" d="M38.2,31h-.3c0-.1.1-.1.1-.2a.4.4,0,0,1,.5-.1A.27.27,0,0,0,38.2,31Z" transform="translate(0 0.14)"/><path class="cls-1" d="M30.3,32a.3.3,0,0,1,0-.4h.3a1.38,1.38,0,0,1-.3.4Z" transform="translate(0 0.14)"/><path class="cls-1" d="M76.2.6c0-.2.2-.3-.1-.5.1-.1.2,0,.3,0V.5a.31.31,0,0,1-.2.1Z" transform="translate(0 0.14)"/><path class="cls-1" d="M27.8,30.9l-.2-.3.4-.1Z" transform="translate(0 0.14)"/><path class="cls-1" d="M38,31.2c0,.1.2.3,0,.4C37.9,31.5,37.8,31.3,38,31.2Z" transform="translate(0 0.14)"/><path class="cls-1" d="M37,32.4l-.3.2v-.3c.1-.1.2.1.3.1Z" transform="translate(0 0.14)"/><path class="cls-1" d="M34.3,32.3l-.1-.5h0l.1.5Z" transform="translate(0 0.14)"/><path class="cls-1" d="M76.3,2a.4.4,0,0,1-.5-.1C76,1.9,76.1,2,76.3,2Z" transform="translate(0 0.14)"/><path class="cls-1" d="M75.6,1.4l-.1-.1.2-.1C75.9,1.2,75.7,1.3,75.6,1.4Z" transform="translate(0 0.14)"/><path class="cls-1" d="M75.9,1.7l.1-.4.1.3Z" transform="translate(0 0.14)"/><path class="cls-1" d="M122.3,7.8c.4,0,.4,0,.2.3-.1-.1,0-.3-.2-.3Z" transform="translate(0 0.14)"/><path class="cls-1" d="M83,1c-.1,0-.3.1-.4-.1A.76.76,0,0,1,83,1Z" transform="translate(0 0.14)"/><path class="cls-1" d="M123.3,5.4l.2.4C123.2,5.6,123.2,5.6,123.3,5.4Z" transform="translate(0 0.14)"/><path class="cls-1" d="M32.8,30.6H33l-.1.1v.1h-.1Z" transform="translate(0 0.14)"/><path class="cls-1" d="M31.9,30.8l.2-.3C32.2,30.8,32.2,30.8,31.9,30.8Z" transform="translate(0 0.14)"/><path class="cls-1" d="M36.1,31.7l-.2.3C35.8,31.8,35.8,31.7,36.1,31.7Z" transform="translate(0 0.14)"/><path class="cls-1" d="M83.3,1.2c-.1-.1-.2-.2-.3-.2h.4c-.1.1-.1.1-.1.2Z" transform="translate(0 0.14)"/><path class="cls-1" d="M76.2,1.2l.3-.3C76.4,1,76.5,1.1,76.2,1.2Z" transform="translate(0 0.14)"/><path class="cls-1" d="M74.6,1.6l-.1.2c-.1-.1-.1-.1-.1-.2S74.5,1.6,74.6,1.6Z" transform="translate(0 0.14)"/><path class="cls-1" d="M123.6,8.5l.1-.3C123.8,8.3,123.8,8.3,123.6,8.5Z" transform="translate(0 0.14)"/><path class="cls-1" d="M35.7,30.9l.2-.2c.1.1,0,.1-.2.2Z" transform="translate(0 0.14)"/><path class="cls-1" d="M35.6,30.8l-.1.2C35.4,30.9,35.4,30.8,35.6,30.8Z" transform="translate(0 0.14)"/><path class="cls-1" d="M76.2.6c0,.2,0,.2-.4.3.2-.2.3-.2.4-.3Z" transform="translate(0 0.14)"/><path class="cls-1" d="M34.4,31h.3l-.1.2-.2-.2Z" transform="translate(0 0.14)"/><path class="cls-1" d="M36.4,31.2h-.3V31Z" transform="translate(0 0.14)"/><path class="cls-1" d="M35.8,32.5l-.2.2C35.6,32.6,35.6,32.5,35.8,32.5Z" transform="translate(0 0.14)"/><path class="cls-1" d="M75.1,1.6c-.2-.1-.1-.2-.1-.2Z" transform="translate(0 0.14)"/><path class="cls-1" d="M123,5.6l-.1-.1h.1c.1,0,.1,0,0,.1Z" transform="translate(0 0.14)"/><path class="cls-1" d="M124.2,14.7c0-.1,0-.1.2-.1-.1,0-.1,0-.2.1Z" transform="translate(0 0.14)"/><path class="cls-1" d="M35,30.7l-.3.1.1-.1c.1-.1.1-.1.2,0Z" transform="translate(0 0.14)"/><path class="cls-1" d="M73,.1h0a.14.14,0,0,1,.2,0Z" transform="translate(0 0.14)"/><path class="cls-1" d="M40.3,31.9c-.1,0-.1.2-.2,0h0a.14.14,0,0,1,.2,0Z" transform="translate(0 0.14)"/><path class="cls-1" d="M35.3,31.4c.1,0,.1.1,0,0v0Z" transform="translate(0 0.14)"/><path class="cls-1" d="M82.4,1.9Z" transform="translate(0 0.14)"/><path class="cls-1" d="M36.3,32.5v.2h-.1l.1-.2Z" transform="translate(0 0.14)"/><path class="cls-1" d="M15.3,1c-.1.1.1.3-.1.4-.2-.1-.2-.3-.3-.5V.2a.19.19,0,0,1,.3,0h0a.31.31,0,0,1,.1.2c.1.2.1.4.2.6Z" transform="translate(0 0.14)"/><path class="cls-1" d="M29.1,30.9c.3.2.6.4.6.7,0,.1.1.1.1.2s-.4,0-.4.2c-.2-.2-.2-.2,0-.4C29.1,31.4,29.2,31.1,29.1,30.9Z" transform="translate(0 0.14)"/><path class="cls-2" d="M2,11.5a1.1,1.1,0,0,1,0-.8c0-.1.1-.1.2-.2C2.4,10.8,2.3,11.1,2,11.5Z" transform="translate(0 0.14)"/><path class="cls-1" d="M69.8,1h-.2c-.1-.1-.1-.2-.2-.3a.37.37,0,0,1,.3-.1c.1.1.3.1.3.2s-.1.2-.2.2Z" transform="translate(0 0.14)"/><path class="cls-1" d="M70.8,1.8l.2-.1-.1-.2h.5c.2,0,.2.1.3.2a.9.9,0,0,0-.5.1c-.2.1-.3,0-.4,0Z" transform="translate(0 0.14)"/><path class="cls-1" d="M68.4.1c.3.1.3.2.2.3a.37.37,0,0,1-.3.1C68.1.5,68.2.3,68.4.1Z" transform="translate(0 0.14)"/><path class="cls-1" d="M26.3,32.2v.2a.86.86,0,0,1-.6-.3c-.1-.1,0-.2.2-.3.2.1.1.3.4.4Z" transform="translate(0 0.14)"/><path class="cls-1" d="M21,32.2l.1-.4a.52.52,0,0,1,.4.2l-.4.2Z" transform="translate(0 0.14)"/><path class="cls-1" d="M68.7,2.1c-.2,0-.2-.1-.2-.2h-.3l.3-.1C68.7,1.8,68.9,1.9,68.7,2.1Z" transform="translate(0 0.14)"/><path class="cls-1" d="M68.5.7c.1,0,.2-.1.3-.1s.2,0,.2.1V.8c-.1,0-.2.1-.3.1Z" transform="translate(0 0.14)"/><path class="cls-1" d="M1.8,12v.4a.35.35,0,0,1-.2.1l-.1-.1a1.38,1.38,0,0,1,.3-.4Z" transform="translate(0 0.14)"/><path class="cls-1" d="M28.5,31.8c.1.1.2.1.4.2s.1.2,0,.3c-.2-.2-.2-.4-.4-.5Z" transform="translate(0 0.14)"/><path class="cls-1" d="M21.3,31c.3.1.3.1.4.3C21.4,31.4,21.4,31.2,21.3,31Z" transform="translate(0 0.14)"/><path class="cls-1" d="M17.3,31.9c-.2,0-.3-.2-.4-.3C17.2,31.6,17.3,31.7,17.3,31.9Z" transform="translate(0 0.14)"/><path class="cls-1" d="M16.6,1.4c-.2,0-.2-.1-.2-.1s0-.2.1-.2l.1.1Z" transform="translate(0 0.14)"/><path class="cls-1" d="M24.2,31.3c.1-.1.3-.1.3,0s0,.1-.1.2A.22.22,0,0,1,24.2,31.3Z" transform="translate(0 0.14)"/><path class="cls-1" d="M73.3,2l-.5-.1.5-.2Z" transform="translate(0 0.14)"/><path class="cls-1" d="M73.9,1,73.7.6C74,.7,74.1.8,73.9,1Z" transform="translate(0 0.14)"/><path class="cls-1" d="M69.2,1.3a.37.37,0,0,1-.3-.1s-.1-.1,0-.1.1-.1.2-.1a.37.37,0,0,1,.1.3Z" transform="translate(0 0.14)"/><path class="cls-1" d="M7.1,2.1c-.1-.2,0-.3.1-.4h0C7.4,1.9,7.4,2,7.1,2.1Z" transform="translate(0 0.14)"/><path class="cls-1" d="M17.4,1.8l-.2.1-.1-.1.1-.1Z" transform="translate(0 0.14)"/><path class="cls-1" d="M14.4,31.6c-.2,0-.2-.2-.3-.3l.3.3Z" transform="translate(0 0.14)"/><path class="cls-1" d="M23.4,31.7l.4.1c-.1.1-.1.1-.2.1s-.1-.1-.2-.2Z" transform="translate(0 0.14)"/><path class="cls-1" d="M27.1,31.3V31c.2.1.2.2.1.3Z" transform="translate(0 0.14)"/><path class="cls-1" d="M1.3,9.1v.3a.1.1,0,0,0-.1.1l-.1-.1c0-.1,0-.2.1-.2Z" transform="translate(0 0.14)"/><path class="cls-1" d="M69.9,1.8c-.2.2-.3.2-.4,0Z" transform="translate(0 0.14)"/><path class="cls-1" d="M72.3,1l.2.2c-.1.1-.2,0-.3,0h0L72.1,1Z" transform="translate(0 0.14)"/><path class="cls-1" d="M20.7,1.1c-.1,0-.1.1-.2.1l-.1-.1.1-.1C20.6,1,20.6,1,20.7,1.1Z" transform="translate(0 0.14)"/><path class="cls-1" d="M28.5,31.7c-.1,0-.2,0-.2-.1l.1-.1a.1.1,0,0,1,.1.1v.1Z" transform="translate(0 0.14)"/><path class="cls-1" d="M69.8,1l.1.4-.3-.2c0-.1.1-.1.2-.2Z" transform="translate(0 0.14)"/><path class="cls-1" d="M30,32.1l.2.4c-.2-.1-.2-.2-.2-.4Z" transform="translate(0 0.14)"/><path class="cls-1" d="M26.2,31l-.2.2-.2-.2Z" transform="translate(0 0.14)"/><path class="cls-1" d="M70.6.3c-.1.3-.1.3-.3.1Z" transform="translate(0 0.14)"/><path class="cls-1" d="M11.7,1v.3a.19.19,0,0,1,0-.3Z" transform="translate(0 0.14)"/><path class="cls-1" d="M31.4,31a.1.1,0,0,1,.1-.1h.2V31c-.1,0-.2.1-.3,0Z" transform="translate(0 0.14)"/><path class="cls-1" d="M7.6,1.7V1.5c.2.1.2.1,0,.2Z" transform="translate(0 0.14)"/><path class="cls-1" d="M26.3,32.2h0l-.1-.3c.2,0,.2.1.3.2C26.4,32.1,26.4,32.2,26.3,32.2Z" transform="translate(0 0.14)"/><path class="cls-1" d="M24.8,32.6c-.1-.1-.2-.1,0-.3l.1.3Z" transform="translate(0 0.14)"/><path class="cls-1" d="M67.8,2.1c0-.1,0-.1.1-.1s.2.1.1.2c0-.1-.1-.1-.2-.1Z" transform="translate(0 0.14)"/><path class="cls-1" d="M69,1.7l.4.1c-.2.1-.3,0-.4-.1Z" transform="translate(0 0.14)"/><path class="cls-1" d="M72.6,1.7c-.1,0-.2,0-.2-.2l.2.2Z" transform="translate(0 0.14)"/><path class="cls-1" d="M25.5,31.6l-.3-.2C25.5,31.4,25.5,31.4,25.5,31.6Z" transform="translate(0 0.14)"/><path class="cls-1" d="M70.6,1.4c-.1.1-.2.2-.3.1h0C70.3,1.3,70.4,1.3,70.6,1.4Z" transform="translate(0 0.14)"/><path class="cls-1" d="M69,1.4l-.2.1-.1-.1Z" transform="translate(0 0.14)"/><path class="cls-1" d="M73.2,1.2c.2,0,.3,0,.3.1l-.1.1Z" transform="translate(0 0.14)"/><path class="cls-1" d="M19.3,30.8c-.1,0-.1.1-.2.1l-.1-.1.1-.1C19.2,30.7,19.2,30.7,19.3,30.8Z" transform="translate(0 0.14)"/><path class="cls-1" d="M26.7,30.6c.1.1,0,.2-.1.2S26.5,30.7,26.7,30.6Z" transform="translate(0 0.14)"/><path class="cls-1" d="M9.9,2.2c0-.2,0-.2.2-.1Z" transform="translate(0 0.14)"/><path class="cls-1" d="M29.5,31l.3-.1C29.7,31,29.7,31,29.5,31Z" transform="translate(0 0.14)"/><path class="cls-1" d="M73.5,1.7h.3C73.7,1.7,73.6,1.8,73.5,1.7Z" transform="translate(0 0.14)"/><path class="cls-1" d="M72.4,1s.1-.1.3,0a.19.19,0,0,1-.3,0Z" transform="translate(0 0.14)"/><path class="cls-1" d="M69.5,1.4l.2.2C69.5,1.5,69.5,1.5,69.5,1.4Z" transform="translate(0 0.14)"/><path class="cls-1" d="M20,31.7l.2.2C20,31.9,20,31.8,20,31.7Z" transform="translate(0 0.14)"/><path class="cls-1" d="M30.9,31a.1.1,0,0,1-.1-.1l.1-.1V31Z" transform="translate(0 0.14)"/><path class="cls-1" d="M29.1,31.7c-.1,0-.1-.1-.1-.2h.1C29.2,31.6,29.2,31.6,29.1,31.7Z" transform="translate(0 0.14)"/><path class="cls-1" d="M19.5,31.7l-.2-.2h.1l.1.2Z" transform="translate(0 0.14)"/><path class="cls-1" d="M72.1,1l.1.2H72Z" transform="translate(0 0.14)"/><path class="cls-1" d="M67.3,1.2h-.2c.1-.2.1-.1.2,0Z" transform="translate(0 0.14)"/><path class="cls-1" d="M72,1.2l.3.1h0v.2Z" transform="translate(0 0.14)"/><path class="cls-1" d="M28.5,31.2l-.1.1a.1.1,0,0,1,0-.2A.1.1,0,0,0,28.5,31.2Z" transform="translate(0 0.14)"/><path class="cls-1" d="M68.2,1.7l-.1-.2h0a.1.1,0,0,1,.1.1c.1,0,.1.1,0,.1Z" transform="translate(0 0.14)"/><path class="cls-1" d="M70.6,1.1,70.3,1h0l.3.1Z" transform="translate(0 0.14)"/><path class="cls-1" d="M72.7.4l.1.1-.1.1a.1.1,0,0,1-.1-.1Z" transform="translate(0 0.14)"/><path class="cls-1" d="M21.1,32.5l.2-.2C21.3,32.5,21.2,32.5,21.1,32.5Z" transform="translate(0 0.14)"/><path class="cls-1" d="M6.8,2.4H6.6a.1.1,0,0,1-.1-.1h.1C6.7,2.3,6.7,2.3,6.8,2.4Z" transform="translate(0 0.14)"/><path class="cls-1" d="M6.4,30.7a.1.1,0,0,0-.1-.1h.1v.1Z" transform="translate(0 0.14)"/><path class="cls-1" d="M26.3,32.5h0v.1a.1.1,0,0,1-.1-.1Z" transform="translate(0 0.14)"/><path class="cls-1" d="M18.3,31.1l-.1-.1h.1v.1Z" transform="translate(0 0.14)"/><path class="cls-1" d="M66.5,1.8l.1.1h0l-.1-.1Z" transform="translate(0 0.14)"/><path class="cls-1" d="M31.1,30.9c.1,0,.1.1,0,0,.1.1,0,.1,0,.1v-.1Z" transform="translate(0 0.14)"/><path class="cls-1" d="M19.6,31.2l-.2-.2h0l.2.2Z" transform="translate(0 0.14)"/><path class="cls-1" d="M30.6,31.1v-.2h.1l.1.1Z" transform="translate(0 0.14)"/><path class="cls-1" d="M26.4,31.3v-.2h.1v.2Z" transform="translate(0 0.14)"/><path class="cls-1" d="M74.2,1.6h-.3c.1-.1.1-.1.3,0Z" transform="translate(0 0.14)"/><path class="cls-1" d="M25.5,32.1a.1.1,0,0,0-.1-.1h.1c.1,0,.1,0,0,.1Z" transform="translate(0 0.14)"/><path class="cls-1" d="M19.9,31.3l.1.1h-.1v-.1Z" transform="translate(0 0.14)"/><path class="cls-1" d="M73.7,1.3a.1.1,0,0,0,.1-.1h.1l-.1.1C73.8,1.4,73.8,1.4,73.7,1.3Z" transform="translate(0 0.14)"/><path class="cls-1" d="M3.3,4.5Z" transform="translate(0 0.14)"/><path class="cls-1" d="M68.4,1.1Z" transform="translate(0 0.14)"/><path class="cls-1" d="M68,1.2h0v0Z" transform="translate(0 0.14)"/><path class="cls-1" d="M23,1.6Z" transform="translate(0 0.14)"/><path class="cls-1" d="M65.3.9h.2V1L65.3.9Z" transform="translate(0 0.14)"/><path class="cls-1" d="M27.4,32.2v-.1h.1c-.1-.1,0,0-.1.1Z" transform="translate(0 0.14)"/><path class="cls-1" d="M71,.8c0,.1-.1.1,0,0a.14.14,0,0,1-.2,0H71Z" transform="translate(0 0.14)"/><path class="cls-1" d="M24.8,32.2h-.1v-.1l.1.1Z" transform="translate(0 0.14)"/><path class="cls-1" d="M22.7,31.2l.1.1h-.1v-.1Z" transform="translate(0 0.14)"/><path class="cls-1" d="M70.1.7h0V.6c.1,0,.1,0,0,.1Z" transform="translate(0 0.14)"/><path class="cls-1" d="M66.7,1.7V1.6h.2C66.8,1.6,66.8,1.6,66.7,1.7Z" transform="translate(0 0.14)"/><path class="cls-1" d="M8.3,2.7h0c-.1-.1,0-.1,0-.1v.1Z" transform="translate(0 0.14)"/><path class="cls-1" d="M69.8.3h0c-.1-.1,0-.1,0-.1V.3Z" transform="translate(0 0.14)"/><path class="cls-1" d="M39.6,30.9h.5l-.1.2c.2.1.2-.2.4-.1s.3-.2.5,0c0,.1-.1.2-.2.3a.37.37,0,0,1-.3-.1,1.21,1.21,0,0,0-.5.5v-.3h-.5C39.4,31.2,39.9,31.2,39.6,30.9Z" transform="translate(0 0.14)"/><path class="cls-1" d="M98.8,32.3s-.1.1-.1,0a.19.19,0,0,0-.3,0,.37.37,0,0,1-.3-.1c-.1,0-.1-.1-.1-.2a.21.21,0,0,1,.4,0C98.6,32,98.7,32.1,98.8,32.3Z" transform="translate(0 0.14)"/><path class="cls-1" d="M100.8,32.6l-.2-.2a.19.19,0,0,1,.1-.3c.1-.1.2,0,.3,0s.2.2,0,.3c.1.1-.1.2-.2.2Z" transform="translate(0 0.14)"/><path class="cls-1" d="M123.3,10.1a1.27,1.27,0,0,1,.1.6.37.37,0,0,0,.1.3c-.3.1-.2.4-.6.4.2-.1.3-.2.3-.4s.1-.2.2-.3a.76.76,0,0,0-.1-.4C123.2,10.2,123.3,10.2,123.3,10.1Z" transform="translate(0 0.14)"/><path class="cls-1" d="M123.7,16.2c0-.2.2-.2.5-.4V16c0,.1-.1.3-.1.4s-.1.1-.2.1S124,16.3,123.7,16.2Z" transform="translate(0 0.14)"/><path class="cls-1" d="M124.3,21.6l-.1.5-.5-.1C123.7,21.7,124.1,21.8,124.3,21.6Z" transform="translate(0 0.14)"/><path class="cls-1" d="M123.9,9.7l.4.4v.1h-.2l-.3-.3a.31.31,0,0,1,.1-.2Z" transform="translate(0 0.14)"/><path class="cls-1" d="M95.8,32a.22.22,0,0,1-.2-.2c0-.1.2-.2.3-.2a.22.22,0,0,1,.2.2c-.1.2-.2.2-.3.2Z" transform="translate(0 0.14)"/><path class="cls-1" d="M75.2,31.4q-.3-.45,0-.6A.64.64,0,0,1,75.2,31.4Z" transform="translate(0 0.14)"/><path class="cls-1" d="M101.8,31c-.1.1-.2.1-.3.2l-.2-.1c0-.1.1-.2.3-.2A.31.31,0,0,1,101.8,31Z" transform="translate(0 0.14)"/><path class="cls-1" d="M98.6,30.9c0-.2.1-.2.2-.2s.2,0,.2.1-.1.2-.2.1Z" transform="translate(0 0.14)"/><path class="cls-1" d="M122.2,18.9a.48.48,0,0,1,.2-.6C122.5,18.5,122.4,18.7,122.2,18.9Z" transform="translate(0 0.14)"/><path class="cls-1" d="M122.9,12l.3-.4C123.3,11.8,123.3,11.9,122.9,12Z" transform="translate(0 0.14)"/><path class="cls-1" d="M123.8,12c.1.1.3.2.4.3v.1c-.4,0-.4-.2-.4-.4Z" transform="translate(0 0.14)"/><path class="cls-1" d="M100.6,30.6a.31.31,0,0,0,.2.1c0,.1-.1.1-.2.1a.1.1,0,0,1-.1-.1Z" transform="translate(0 0.14)"/><path class="cls-1" d="M123.7,13.8c.3.2.3.2.1.5Z" transform="translate(0 0.14)"/><path class="cls-1" d="M122.8,13.5c.2.1.4.1.5.3l-.5-.3Z" transform="translate(0 0.14)"/><path class="cls-1" d="M123.9,18.4l-.1-.2h.1l.2.2Z" transform="translate(0 0.14)"/><path class="cls-1" d="M122.6,19.2a.66.66,0,0,1,.6-.1A1.27,1.27,0,0,1,122.6,19.2Z" transform="translate(0 0.14)"/><path class="cls-1" d="M100,31.8l.3.1C100.1,32,100.1,32,100,31.8Z" transform="translate(0 0.14)"/><path class="cls-1" d="M122.5,27.3l.1-.3h.1v.1C122.8,27.2,122.8,27.2,122.5,27.3Z" transform="translate(0 0.14)"/><path class="cls-1" d="M38.9,32.4l.2-.1c0,.2,0,.2-.2.3v-.2Z" transform="translate(0 0.14)"/><path class="cls-1" d="M94.6,31.7l.2.2-.1.1c-.1,0-.1-.1-.2-.1S94.5,31.8,94.6,31.7Z" transform="translate(0 0.14)"/><path class="cls-1" d="M122.4,12.4c0-.1-.2-.2,0-.4C122.5,12.2,122.6,12.3,122.4,12.4Z" transform="translate(0 0.14)"/><path class="cls-1" d="M123.1,21.6l.2-.4h.1l-.2.4Z" transform="translate(0 0.14)"/><path class="cls-1" d="M122.2,19.1c-.1.2,0,.3-.2.4C122,19.3,122,19.2,122.2,19.1Z" transform="translate(0 0.14)"/><path class="cls-1" d="M40.2,31.9a.14.14,0,0,0-.2,0c0-.1.1-.1.1-.2s.1-.1.2-.1C40.4,31.8,40.4,31.9,40.2,31.9Z" transform="translate(0 0.14)"/><path class="cls-1" d="M122.2,24.8l-.1.4H122l.2-.4Z" transform="translate(0 0.14)"/><path class="cls-1" d="M38.9,32l.4.1-.1.1c-.2,0-.3-.1-.3-.2Z" transform="translate(0 0.14)"/><path class="cls-1" d="M98,31.3l-.1.1-.1-.1.1-.1Z" transform="translate(0 0.14)"/><path class="cls-1" d="M122.2,21.3h0c.1.1.1.2-.1.2H122C121.9,21.4,122,21.3,122.2,21.3Z" transform="translate(0 0.14)"/><path class="cls-1" d="M104.8,31.1a.1.1,0,0,0-.1-.1l.1-.1.1.1A.1.1,0,0,0,104.8,31.1Z" transform="translate(0 0.14)"/><path class="cls-1" d="M122.4,14.3V14C122.5,14.1,122.5,14.1,122.4,14.3Z" transform="translate(0 0.14)"/><path class="cls-1" d="M42,31.4h-.2l.3-.2-.1.2Z" transform="translate(0 0.14)"/><path class="cls-1" d="M124.1,24.5c-.1.2-.1.2-.3,0Z" transform="translate(0 0.14)"/><path class="cls-1" d="M113.2,32.5l-.2.1-.1-.1.1-.1A.31.31,0,0,0,113.2,32.5Z" transform="translate(0 0.14)"/><path class="cls-1" d="M118.1,31.5c-.1-.1,0-.3.1-.4.1.2-.1.3-.1.4Z" transform="translate(0 0.14)"/><path class="cls-1" d="M44.1,31.8l.2-.2h.1l-.3.2Z" transform="translate(0 0.14)"/><path class="cls-1" d="M121.9,13.6v-.3h.1v.3Z" transform="translate(0 0.14)"/><path class="cls-1" d="M42.3,31.8h.2l-.2.2h-.1Z" transform="translate(0 0.14)"/><path class="cls-1" d="M92.3,30.9h-.2a.1.1,0,1,1,0-.2Z" transform="translate(0 0.14)"/><path class="cls-1" d="M41.8,31.9c0,.1,0,.2-.2.2S41.6,31.9,41.8,31.9Z" transform="translate(0 0.14)"/><path class="cls-1" d="M122.8,14.7v-.3C122.9,14.4,122.9,14.4,122.8,14.7Z" transform="translate(0 0.14)"/><path class="cls-1" d="M123.6,23.9h.2V24l-.2-.1Z" transform="translate(0 0.14)"/><path class="cls-1" d="M121.7,14.1l.1-.3h.1v.3Z" transform="translate(0 0.14)"/><path class="cls-1" d="M102,32.5l-.1.1-.1-.1.1-.1Z" transform="translate(0 0.14)"/><path class="cls-1" d="M102.4,30.8c0,.1-.1.2-.3.1Z" transform="translate(0 0.14)"/><path class="cls-1" d="M93.8,32.4a.1.1,0,0,0-.1.1.1.1,0,0,1,0-.2A.1.1,0,0,0,93.8,32.4Z" transform="translate(0 0.14)"/><path class="cls-1" d="M120.3,27.5v.2h-.1l.1-.2Z" transform="translate(0 0.14)"/><path class="cls-1" d="M123.9,20.5h-.1a.1.1,0,0,1-.1-.1h.1A.1.1,0,0,0,123.9,20.5Z" transform="translate(0 0.14)"/><path class="cls-1" d="M46.9,31.5l.2-.2C47.1,31.5,47.1,31.5,46.9,31.5Z" transform="translate(0 0.14)"/><path class="cls-1" d="M44.4,32.2l-.2.1c-.1-.1,0-.2.2-.1Z" transform="translate(0 0.14)"/><path class="cls-1" d="M123.5,11.2v.2h-.1l-.1-.1Z" transform="translate(0 0.14)"/><path class="cls-1" d="M85.2,31.1Z" transform="translate(0 0.14)"/><path class="cls-1" d="M43.9,32.5h.3C44.1,32.7,44,32.6,43.9,32.5Z" transform="translate(0 0.14)"/><path class="cls-1" d="M101.7,31.4v-.1h.1l-.1.1Z" transform="translate(0 0.14)"/><path class="cls-1" d="M42,31.4l.1.1-.3.1c.1-.1.2-.1.2-.2Z" transform="translate(0 0.14)"/><path class="cls-1" d="M93.3,31.8a.1.1,0,0,0,.1.1l-.1.1c-.1-.1-.1-.1,0-.2Z" transform="translate(0 0.14)"/><path class="cls-1" d="M37.1,31.9c.1,0,.2,0,.2.2l-.2-.2Z" transform="translate(0 0.14)"/><path class="cls-1" d="M101.3,31.7h0c-.1-.1-.1-.1,0-.2a.1.1,0,0,1,.1.1C101.4,31.7,101.4,31.6,101.3,31.7Z" transform="translate(0 0.14)"/><path class="cls-1" d="M120.5,28l-.1.3C120.3,28.1,120.3,28.1,120.5,28Z" transform="translate(0 0.14)"/><path class="cls-1" d="M123.3,15.2l-.2.2C123.1,15.3,123.1,15.3,123.3,15.2Z" transform="translate(0 0.14)"/><path class="cls-1" d="M123.8,23.6h.2v.1l-.2-.1Z" transform="translate(0 0.14)"/><path class="cls-1" d="M41.7,30.8l.2.1c-.2.1-.2.1-.2-.1Z" transform="translate(0 0.14)"/><path class="cls-1" d="M123.7,23.2h-.1a.1.1,0,0,1-.1-.1h.1C123.7,23.1,123.7,23.1,123.7,23.2Z" transform="translate(0 0.14)"/><path class="cls-1" d="M102.6,31h0v0Z" transform="translate(0 0.14)"/><path class="cls-1" d="M96.6,31.2h-.1l-.1-.1c.1.1.1.1.2.1Z" transform="translate(0 0.14)"/><path class="cls-1" d="M122.9,14.1l-.2-.1C122.9,13.9,122.9,13.9,122.9,14.1Z" transform="translate(0 0.14)"/><path class="cls-1" d="M123.7,12.7Z" transform="translate(0 0.14)"/><path class="cls-1" d="M44.4,31.9l-.1.1-.1-.1h.2Z" transform="translate(0 0.14)"/><path class="cls-1" d="M105.4,32.1Z" transform="translate(0 0.14)"/><path class="cls-1" d="M38.9,32.4c-.1,0-.2,0-.2-.1a.35.35,0,0,1,.2.1Z" transform="translate(0 0.14)"/><path class="cls-1" d="M92.5,32.5h-.1c0-.1,0-.1.1,0C92.4,32.4,92.5,32.4,92.5,32.5Z" transform="translate(0 0.14)"/><path class="cls-1" d="M123.9,24.3Z" transform="translate(0 0.14)"/><path class="cls-1" d="M93.9,1.9a.73.73,0,0,1-.2-.6V.9c0-.2.1-.3.2-.3a.73.73,0,0,1,.6.2l-.4.1a1,1,0,0,0,.2.7H94v.3Z" transform="translate(0 0.14)"/><path class="cls-1" d="M90.5.4a.25.25,0,0,1,.1.4s-.1.1-.1,0L90.4.7A.49.49,0,0,1,90.5.4Z" transform="translate(0 0.14)"/><path class="cls-1" d="M94.9.5l.1.6h-.2a.45.45,0,0,1,0-.5Z" transform="translate(0 0.14)"/><path class="cls-1" d="M95.3,2a.1.1,0,0,1-.1-.1V1.7h.1c0,.1.1.1.1.2l-.1.1Z" transform="translate(0 0.14)"/><path class="cls-1" d="M116.2,1.4c.1.2,0,.3-.2.4C116,1.6,116,1.6,116.2,1.4Z" transform="translate(0 0.14)"/><path class="cls-1" d="M99.3,1.7l-.1-.1.1-.1.1.1A.1.1,0,0,0,99.3,1.7Z" transform="translate(0 0.14)"/><path class="cls-1" d="M89.1.3c.2-.1.3,0,.4.1C89.4.5,89.2.4,89.1.3Z" transform="translate(0 0.14)"/><path class="cls-1" d="M90.5,1.5v.3Q90.2,1.65,90.5,1.5Z" transform="translate(0 0.14)"/><path class="cls-1" d="M102.1.2a.19.19,0,0,1-.3,0V.1A.37.37,0,0,1,102.1.2Z" transform="translate(0 0.14)"/><path class="cls-1" d="M89.7,1.6c-.2,0-.2-.1-.1-.2h.1C89.8,1.4,89.8,1.5,89.7,1.6Z" transform="translate(0 0.14)"/><path class="cls-1" d="M97.8.6h-.2V.5a.31.31,0,0,1,.2.1Z" transform="translate(0 0.14)"/><path class="cls-1" d="M91.4,1a.35.35,0,0,1-.2.1.1.1,0,0,1-.1-.1l.1-.1C91.3,1,91.3,1,91.4,1Z" transform="translate(0 0.14)"/><path class="cls-1" d="M88.7,1.5c-.1,0-.1-.1-.2-.1h0l.2.1Z" transform="translate(0 0.14)"/><path class="cls-1" d="M91.4.2h-.2V.1l.2.1Z" transform="translate(0 0.14)"/><path class="cls-1" d="M121.5,4.5l.2-.1.2.2c-.1.2-.2.3-.2.5s-.1.3-.1.5c-.3-.1-.1-.3-.3-.4l-.1.2h0V5.1a.1.1,0,0,1,.1-.1c.2-.1.2-.2.2-.2-.2-.1,0-.2,0-.3Z" transform="translate(0 0.14)"/><path class="cls-1" d="M122,6.9c-.2,0-.3-.1-.2-.2A1.85,1.85,0,0,0,122,6C122.2,6.2,122.2,6.2,122,6.9Z" transform="translate(0 0.14)"/><path class="cls-1" d="M121.5,3.8v.8h-.1a.45.45,0,0,1,0-.6c0-.2,0-.2.1-.2Z" transform="translate(0 0.14)"/><path class="cls-1" d="M121.1,4.7a.37.37,0,0,1-.2.5h-.1Z" transform="translate(0 0.14)"/><path class="cls-1" d="M122.3,7.5c-.1-.3,0-.3.3-.4Z" transform="translate(0 0.14)"/><path class="cls-1" d="M121.5,3.8c.1,0,.3,0,.3.1a.37.37,0,0,1-.1.3c-.1-.2-.2-.3-.2-.4Z" transform="translate(0 0.14)"/><path class="cls-1" d="M121.3,6.9l.1-.1c.2.1.2.1.2.2Z" transform="translate(0 0.14)"/><path class="cls-1" d="M122.2,7c-.1-.1-.1-.2.1-.3l-.1.3Z" transform="translate(0 0.14)"/><path class="cls-1" d="M122.1,7.7l-.1.2C121.9,7.7,121.9,7.7,122.1,7.7Z" transform="translate(0 0.14)"/><path class="cls-1" d="M122.6,4.9l-.2.2C122.4,5,122.4,5,122.6,4.9Z" transform="translate(0 0.14)"/><path class="cls-1" d="M121.8,4.1V3.8Q122.1,4,121.8,4.1Z" transform="translate(0 0.14)"/><path class="cls-1" d="M122.6,4.5l-.2.2c0-.1.1-.1.2-.2Z" transform="translate(0 0.14)"/><path class="cls-1" d="M121.7,8.3l.2-.2v.1C121.9,8.3,121.9,8.4,121.7,8.3Z" transform="translate(0 0.14)"/><path class="cls-1" d="M121.7,8a.1.1,0,0,1-.1.1h-.1c.1,0,.1-.1.2-.1Z" transform="translate(0 0.14)"/><path class="cls-1" d="M118.8,3.6l-.1-.1a.6.6,0,0,0,.1-.4.35.35,0,0,0,.1-.2h.1c0,.1.1.1.1.2s-.2.3-.3.5Z" transform="translate(0 0.14)"/><path class="cls-1" d="M117.7,1.8l.1-.2h.1l-.2.2Z" transform="translate(0 0.14)"/><path class="cls-1" d="M84.6,2c-.1-.1.1-.2.2-.2.1.2.1.2-.2.2Z" transform="translate(0 0.14)"/><path class="cls-1" d="M83.1,2h.3c-.2.2-.2.2-.3,0Z" transform="translate(0 0.14)"/><path class="cls-1" d="M86.8,1.4c0,.1.1.1,0,.1s-.2,0-.1-.1c-.1-.1,0,0,.1,0Z" transform="translate(0 0.14)"/><path class="cls-1" d="M86.9.4,86.8.3h.1V.4Z" transform="translate(0 0.14)"/><path class="cls-1" d="M86.8,1.4l.2-.2c0,.2,0,.2-.2.2Z" transform="translate(0 0.14)"/><text class="cls-3" transform="translate(25.92 15.38)">Gäller <tspan class="cls-4" x="37.93" y="0">A</tspan><tspan x="46.48" y="0">C v7,</tspan><tspan x="10.44" y="12">v8 &amp; </tspan><tspan class="cls-4" x="40.69" y="12">A</tspan><tspan x="49.24" y="12">CS</tspan></text></svg>